<?xml version="1.0" encoding="utf-8"?>
<COLLADA xmlns="http://www.collada.org/2005/11/COLLADASchema" version="1.4.1">
  <asset><unit name="meter" meter="1"/><up_axis>Z_UP</up_axis></asset>
  <library_effects>
    <effect id="dashplate_flat_stunt_edges-effect">
      <profile_COMMON><technique sid="common"><lambert><diffuse><color>1 1 1 1</color></diffuse></lambert></technique></profile_COMMON>
    </effect>
  </library_effects>
  <library_materials>
    <material id="dashplate_flat_stunt_edges-material" name="dashplate_flat_stuntramp_edge">
      <instance_effect url="#dashplate_flat_stunt_edges-effect"/>
    </material>
  </library_materials>
  <library_geometries>
    <geometry id="dashplate_flat_stunt_edges-mesh" name="dashplate_flat_stunt_edges">
      <mesh>
        <source id="dashplate_flat_stunt_edges-positions">
          <float_array id="dashplate_flat_stunt_edges-positions-array" count="96">-2.23 -8 0.0386566 -2.23 -1.07 1.01866 -2.23 3.52 2.56866 -2.23 6.98 4.56866 -2.01 -8 0.0386566 -2.01 -1.07 1.01866 -2.01 3.52 2.56866 -2.01 6.98 4.56866 2.01 -8 0.0386566 2.01 -1.07 1.01866 2.01 3.52 2.56866 2.01 6.98 4.56866 2.23 -8 0.0386566 2.23 -1.07 1.01866 2.23 3.52 2.56866 2.23 6.98 4.56866 -2.23 -8 0.0386566 -2.23 -1.07 1.01866 -2.23 3.52 2.56866 -2.23 6.98 4.56866 -2.01 -8 0.0386566 -2.01 -1.07 1.01866 -2.01 3.52 2.56866 -2.01 6.98 4.56866 2.01 -8 0.0386566 2.01 -1.07 1.01866 2.01 3.52 2.56866 2.01 6.98 4.56866 2.23 -8 0.0386566 2.23 -1.07 1.01866 2.23 3.52 2.56866 2.23 6.98 4.56866</float_array>
          <technique_common><accessor source="#dashplate_flat_stunt_edges-positions-array" count="32" stride="3"><param name="X" type="float"/><param name="Y" type="float"/><param name="Z" type="float"/></accessor></technique_common>
        </source>
        <source id="dashplate_flat_stunt_edges-normals">
          <float_array id="dashplate_flat_stunt_edges-normals-array" count="3">0 0 1</float_array>
          <technique_common><accessor source="#dashplate_flat_stunt_edges-normals-array" count="1" stride="3"><param name="X" type="float"/><param name="Y" type="float"/><param name="Z" type="float"/></accessor></technique_common>
        </source>
        <source id="dashplate_flat_stunt_edges-map">
          <float_array id="dashplate_flat_stunt_edges-map-array" count="64">0 0 0 0.4626168 0 0.7690254 0 1 1 0 1 0.4626168 1 0.7690254 1 1 0 0 0 0.4626168 0 0.7690254 0 1 1 0 1 0.4626168 1 0.7690254 1 1 0 0 0 0.4626168 0 0.7690254 0 1 1 0 1 0.4626168 1 0.7690254 1 1 0 0 0 0.4626168 0 0.7690254 0 1 1 0 1 0.4626168 1 0.7690254 1 1</float_array>
          <technique_common><accessor source="#dashplate_flat_stunt_edges-map-array" count="32" stride="2"><param name="S" type="float"/><param name="T" type="float"/></accessor></technique_common>
        </source>
        <vertices id="dashplate_flat_stunt_edges-vertices"><input semantic="POSITION" source="#dashplate_flat_stunt_edges-positions"/></vertices>
        <triangles material="dashplate_flat_stunt_edges-material" count="24">
          <input semantic="VERTEX" source="#dashplate_flat_stunt_edges-vertices" offset="0"/>
          <input semantic="NORMAL" source="#dashplate_flat_stunt_edges-normals" offset="1"/>
          <input semantic="TEXCOORD" source="#dashplate_flat_stunt_edges-map" offset="2" set="0"/>
          <p>0 0 0 4 0 4 5 0 5 0 0 0 5 0 5 1 0 1 1 0 1 5 0 5 6 0 6 1 0 1 6 0 6 2 0 2 2 0 2 6 0 6 7 0 7 2 0 2 7 0 7 3 0 3 8 0 8 12 0 12 13 0 13 8 0 8 13 0 13 9 0 9 9 0 9 13 0 13 14 0 14 9 0 9 14 0 14 10 0 10 10 0 10 14 0 14 15 0 15 10 0 10 15 0 15 11 0 11 16 0 16 20 0 20 21 0 21 16 0 16 21 0 21 17 0 17 17 0 17 21 0 21 22 0 22 17 0 17 22 0 22 18 0 18 18 0 18 22 0 22 23 0 23 18 0 18 23 0 23 19 0 19 24 0 24 28 0 28 29 0 29 24 0 24 29 0 29 25 0 25 25 0 25 29 0 29 30 0 30 25 0 25 30 0 30 26 0 26 26 0 26 30 0 30 31 0 31 26 0 26 31 0 31 27 0 27</p>
        </triangles>
      </mesh>
    </geometry>
  </library_geometries>
  <library_visual_scenes>
    <visual_scene id="Scene" name="Scene">
      <node id="dashplate_flat_stunt_edges" name="dashplate_flat_stunt_edges" type="NODE">
        <instance_geometry url="#dashplate_flat_stunt_edges-mesh">
          <bind_material><technique_common><instance_material symbol="dashplate_flat_stunt_edges-material" target="#dashplate_flat_stunt_edges-material"/></technique_common></bind_material>
        </instance_geometry>
      </node>
    </visual_scene>
  </library_visual_scenes>
  <scene><instance_visual_scene url="#Scene"/></scene>
</COLLADA>
