<?xml version="1.0" encoding="utf-8"?>
<COLLADA xmlns="http://www.collada.org/2005/11/COLLADASchema" version="1.4.1" xmlns:xsi="http://www.w3.org/2001/XMLSchema-instance">
  <asset>
    <contributor>
      <author>Blender User</author>
      <authoring_tool>Blender 3.6.4 commit date:2023-09-25, commit time:13:24, hash:21bfc5e7fe3f</authoring_tool>
    </contributor>
    <created>2024-06-23T22:42:58</created>
    <modified>2024-06-23T22:42:58</modified>
    <unit name="meter" meter="1"/>
    <up_axis>Z_UP</up_axis>
  </asset>
  <library_effects>
    <effect id="dashplate_slope_body_main-effect">
      <profile_COMMON>
        <technique sid="common">
          <lambert>
            <emission>
              <color sid="emission">0 0 0 1</color>
            </emission>
            <diffuse>
              <color sid="diffuse">0.8 0.8 0.8 1</color>
            </diffuse>
            <index_of_refraction>
              <float sid="ior">1.45</float>
            </index_of_refraction>
          </lambert>
        </technique>
      </profile_COMMON>
    </effect>
  </library_effects>
  <library_images/>
  <library_materials>
    <material id="dashplate_slope_body_main-material" name="dashplate_slope_body_main">
      <instance_effect url="#dashplate_slope_body_main-effect"/>
    </material>
  </library_materials>
  <library_geometries>
    <geometry id="dashplate_slope_body-mesh" name="dashplate_slope_body">
      <mesh>
        <source id="dashplate_slope_body-mesh-positions">
          <float_array id="dashplate_slope_body-mesh-positions-array" count="48">0 0 0 0 1 0 1 0 0 0 0 1 -3 -1 0.00999999 -3 2 0.00999999 3 -1 0.00999999 3 2 0.00999999 -3 -2 -0.1 -3 3 -0.1 3 -2 -0.1 3 3 -0.1 3 1.997109 -0.1 3 -1.008 -0.1 -3 -0.9998999 -0.1 -3 1.995977 -0.1</float_array>
          <technique_common>
            <accessor source="#dashplate_slope_body-mesh-positions-array" count="16" stride="3">
              <param name="X" type="float"/>
              <param name="Y" type="float"/>
              <param name="Z" type="float"/>
            </accessor>
          </technique_common>
        </source>
        <source id="dashplate_slope_body-mesh-normals">
          <float_array id="dashplate_slope_body-mesh-normals-array" count="21">0 0 1 0 0.1093404 0.9940044 0 -0.1093404 0.9940044 1 0 0 -1 0 0 0 0 -1 0 0 -1</float_array>
          <technique_common>
            <accessor source="#dashplate_slope_body-mesh-normals-array" count="7" stride="3">
              <param name="X" type="float"/>
              <param name="Y" type="float"/>
              <param name="Z" type="float"/>
            </accessor>
          </technique_common>
        </source>
        <source id="dashplate_slope_body-mesh-map">
          <float_array id="dashplate_slope_body-mesh-map-array" count="120">0.2998722 0.598725 0.5992347 0 0.5992347 0.5987249 0.6996241 0.5987249 0.5992347 0 0.6996241 0 0.6996241 0 0.8000135 0.5987248 0.6996241 0.5987248 0.08754795 0.6987664 0.07656759 0.6987664 0.0791971 0.5987249 0.06574404 0.6991143 0.06574404 0.598725 0.07656759 0.6971206 0.01097667 0.8977988 0 0.8985971 0 0.5987249 0.05483216 0.6991143 0.05483216 0.598725 0.06574404 0.5999153 0.02194625 0.5987249 0.03290081 0.5995283 0.02194631 0.8982785 0.0548321 0.6991142 0.04387742 0.5995261 0.05483216 0.5987249 0.03290081 0.8980873 0.03290081 0.5987249 0.04387742 0.8977988 0.01097667 0.8978863 0.02194625 0.5987249 0.02194625 0.8982785 0.8000136 0.5987249 0.9000895 0 0.9002025 0.5987249 0 0 0.299064 0.5987249 1.1294e-4 0.5987249 0.9991917 0.5987249 0.9002026 0 1 0 0.2998722 0.598725 0.2998722 0 0.5992347 0 0.6996241 0.5987249 0.5992347 0.5987249 0.5992347 0 0.6996241 0 0.8000135 0 0.8000135 0.5987248 0.8000136 0.5987249 0.8000136 0 0.9000895 0 0 0 0.2998722 0 0.299064 0.5987249 0.9991917 0.5987249 0.9002026 0.5987249 0.9002026 0</float_array>
          <technique_common>
            <accessor source="#dashplate_slope_body-mesh-map-array" count="60" stride="2">
              <param name="S" type="float"/>
              <param name="T" type="float"/>
            </accessor>
          </technique_common>
        </source>
        <vertices id="dashplate_slope_body-mesh-vertices">
          <input semantic="POSITION" source="#dashplate_slope_body-mesh-positions"/>
        </vertices>
        <lines count="21">
          <input semantic="VERTEX" source="#dashplate_slope_body-mesh-vertices" offset="0"/>
          <p>8 0 9 0 8 1 10 0 9 1 11 0 8 2 10 1 9 2 11 1 8 3 10 2 9 3 11 2 10 3 11 3 4 11 5 10 9 6 8 7 11 10</p>
        </lines>
        <triangles material="dashplate_slope_body_main-material" count="20">
          <input semantic="VERTEX" source="#dashplate_slope_body-mesh-vertices" offset="0"/>
          <input semantic="NORMAL" source="#dashplate_slope_body-mesh-normals" offset="1"/>
          <input semantic="TEXCOORD" source="#dashplate_slope_body-mesh-map" offset="2" set="0"/>
          <p>4 0 0 7 0 1 5 0 2 9 1 3 7 1 4 11 1 5 4 2 6 10 2 7 6 2 8 7 3 9 12 3 10 11 3 11 6 3 12 10 3 13 13 3 14 6 3 15 13 3 16 12 3 17 8 4 18 4 4 19 14 4 20 5 4 21 15 4 22 14 4 23 9 4 24 15 4 25 5 4 26 7 3 27 6 3 28 12 3 29 4 4 30 5 4 31 14 4 32 9 5 33 12 5 34 15 5 35 12 5 36 14 5 37 15 5 38 13 5 39 8 5 40 14 5 41 4 0 42 6 0 43 7 0 44 9 1 45 5 1 46 7 1 47 4 2 48 8 2 49 10 2 50 9 5 51 11 5 52 12 5 53 12 6 54 13 6 55 14 6 56 13 5 57 10 5 58 8 5 59</p>
        </triangles>
      </mesh>
    </geometry>
  </library_geometries>
  <library_visual_scenes>
    <visual_scene id="Scene" name="Scene">
      <node id="dashplate_slope_body" name="dashplate_slope_body" type="NODE">
        <matrix sid="transform">1 0 0 0 0 1 0 0 0 0 1 0 0 0 0 1</matrix>
        <instance_geometry url="#dashplate_slope_body-mesh" name="dashplate_slope_body">
          <bind_material>
            <technique_common>
              <instance_material symbol="dashplate_slope_body_main-material" target="#dashplate_slope_body_main-material"/>
            </technique_common>
          </bind_material>
        </instance_geometry>
      </node>
    </visual_scene>
  </library_visual_scenes>
  <scene>
    <instance_visual_scene url="#Scene"/>
  </scene>
</COLLADA>