<?xml version="1.0" encoding="utf-8"?>
<COLLADA xmlns="http://www.collada.org/2005/11/COLLADASchema" version="1.4.1">
  <asset><unit name="meter" meter="1"/><up_axis>Z_UP</up_axis></asset>
  <library_effects>
    <effect id="dashplate_flat_body_megaramp-effect">
      <profile_COMMON><technique sid="common"><lambert><diffuse><color>1 1 1 1</color></diffuse></lambert></technique></profile_COMMON>
    </effect>
  </library_effects>
  <library_materials>
    <material id="dashplate_flat_body_megaramp-material" name="dashplate_flat_body_main">
      <instance_effect url="#dashplate_flat_body_megaramp-effect"/>
    </material>
  </library_materials>
  <library_geometries>
    <geometry id="dashplate_flat_body_megaramp-mesh" name="dashplate_flat_body_megaramp">
      <mesh>
        <source id="dashplate_flat_body_megaramp-positions">
          <float_array id="dashplate_flat_body_megaramp-positions-array" count="546">-5 -12.5 9.01666 -3.33333 -12.5 9.01666 -1.66667 -12.5 9.01666 0 -12.5 9.01666 1.66667 -12.5 9.01666 3.33333 -12.5 9.01666 5 -12.5 9.01666 -5 -11.5 8.65666 -3.33333 -11.5 8.65666 -1.66667 -11.5 8.65666 0 -11.5 8.65666 1.66667 -11.5 8.65666 3.33333 -11.5 8.65666 5 -11.5 8.65666 -5 -10.5 8.29666 -3.33333 -10.5 8.29666 -1.66667 -10.5 8.29666 0 -10.5 8.29666 1.66667 -10.5 8.29666 3.33333 -10.5 8.29666 5 -10.5 8.29666 -5 -9.5 7.93666 -3.33333 -9.5 7.93666 -1.66667 -9.5 7.93666 0 -9.5 7.93666 1.66667 -9.5 7.93666 3.33333 -9.5 7.93666 5 -9.5 7.93666 -5 -8.5 7.57666 -3.33333 -8.5 7.57666 -1.66667 -8.5 7.57666 0 -8.5 7.57666 1.66667 -8.5 7.57666 3.33333 -8.5 7.57666 5 -8.5 7.57666 -5 -7.5 7.21666 -3.33333 -7.5 7.21666 -1.66667 -7.5 7.21666 0 -7.5 7.21666 1.66667 -7.5 7.21666 3.33333 -7.5 7.21666 5 -7.5 7.21666 -5 -6.5 6.85666 -3.33333 -6.5 6.85666 -1.66667 -6.5 6.85666 0 -6.5 6.85666 1.66667 -6.5 6.85666 3.33333 -6.5 6.85666 5 -6.5 6.85666 -5 -5.5 6.49666 -3.33333 -5.5 6.49666 -1.66667 -5.5 6.49666 0 -5.5 6.49666 1.66667 -5.5 6.49666 3.33333 -5.5 6.49666 5 -5.5 6.49666 -5 -4.5 6.13666 -3.33333 -4.5 6.13666 -1.66667 -4.5 6.13666 0 -4.5 6.13666 1.66667 -4.5 6.13666 3.33333 -4.5 6.13666 5 -4.5 6.13666 -5 -3.5 5.77666 -3.33333 -3.5 5.77666 -1.66667 -3.5 5.77666 0 -3.5 5.77666 1.66667 -3.5 5.77666 3.33333 -3.5 5.77666 5 -3.5 5.77666 -5 -2.5 5.41666 -3.33333 -2.5 5.41666 -1.66667 -2.5 5.41666 0 -2.5 5.41666 1.66667 -2.5 5.41666 3.33333 -2.5 5.41666 5 -2.5 5.41666 -5 -1.5 5.05666 -3.33333 -1.5 5.05666 -1.66667 -1.5 5.05666 0 -1.5 5.05666 1.66667 -1.5 5.05666 3.33333 -1.5 5.05666 5 -1.5 5.05666 -5 -0.5 4.69666 -3.33333 -0.5 4.69666 -1.66667 -0.5 4.69666 0 -0.5 4.69666 1.66667 -0.5 4.69666 3.33333 -0.5 4.69666 5 -0.5 4.69666 -5 0.5 4.33666 -3.33333 0.5 4.33666 -1.66667 0.5 4.33666 0 0.5 4.33666 1.66667 0.5 4.33666 3.33333 0.5 4.33666 5 0.5 4.33666 -5 1.5 3.97666 -3.33333 1.5 3.97666 -1.66667 1.5 3.97666 0 1.5 3.97666 1.66667 1.5 3.97666 3.33333 1.5 3.97666 5 1.5 3.97666 -5 2.5 3.61666 -3.33333 2.5 3.61666 -1.66667 2.5 3.61666 0 2.5 3.61666 1.66667 2.5 3.61666 3.33333 2.5 3.61666 5 2.5 3.61666 -5 3.5 3.25666 -3.33333 3.5 3.25666 -1.66667 3.5 3.25666 0 3.5 3.25666 1.66667 3.5 3.25666 3.33333 3.5 3.25666 5 3.5 3.25666 -5 4.5 2.89666 -3.33333 4.5 2.89666 -1.66667 4.5 2.89666 0 4.5 2.89666 1.66667 4.5 2.89666 3.33333 4.5 2.89666 5 4.5 2.89666 -5 5.5 2.53666 -3.33333 5.5 2.53666 -1.66667 5.5 2.53666 0 5.5 2.53666 1.66667 5.5 2.53666 3.33333 5.5 2.53666 5 5.5 2.53666 -5 6.5 2.17666 -3.33333 6.5 2.17666 -1.66667 6.5 2.17666 0 6.5 2.17666 1.66667 6.5 2.17666 3.33333 6.5 2.17666 5 6.5 2.17666 -5 7.5 1.81666 -3.33333 7.5 1.81666 -1.66667 7.5 1.81666 0 7.5 1.81666 1.66667 7.5 1.81666 3.33333 7.5 1.81666 5 7.5 1.81666 -5 8.5 1.45666 -3.33333 8.5 1.45666 -1.66667 8.5 1.45666 0 8.5 1.45666 1.66667 8.5 1.45666 3.33333 8.5 1.45666 5 8.5 1.45666 -5 9.5 1.09666 -3.33333 9.5 1.09666 -1.66667 9.5 1.09666 0 9.5 1.09666 1.66667 9.5 1.09666 3.33333 9.5 1.09666 5 9.5 1.09666 -5 10.5 0.736657 -3.33333 10.5 0.736657 -1.66667 10.5 0.736657 0 10.5 0.736657 1.66667 10.5 0.736657 3.33333 10.5 0.736657 5 10.5 0.736657 -5 11.5 0.376657 -3.33333 11.5 0.376657 -1.66667 11.5 0.376657 0 11.5 0.376657 1.66667 11.5 0.376657 3.33333 11.5 0.376657 5 11.5 0.376657 -5 12.5 0.0166566 -3.33333 12.5 0.0166566 -1.66667 12.5 0.0166566 0 12.5 0.0166566 1.66667 12.5 0.0166566 3.33333 12.5 0.0166566 5 12.5 0.0166566</float_array>
          <technique_common><accessor source="#dashplate_flat_body_megaramp-positions-array" count="182" stride="3"><param name="X" type="float"/><param name="Y" type="float"/><param name="Z" type="float"/></accessor></technique_common>
        </source>
        <source id="dashplate_flat_body_megaramp-normals">
          <float_array id="dashplate_flat_body_megaramp-normals-array" count="3">0 0 1</float_array>
          <technique_common><accessor source="#dashplate_flat_body_megaramp-normals-array" count="1" stride="3"><param name="X" type="float"/><param name="Y" type="float"/><param name="Z" type="float"/></accessor></technique_common>
        </source>
        <source id="dashplate_flat_body_megaramp-map">
          <float_array id="dashplate_flat_body_megaramp-map-array" count="364">0 1 0.1666667 1 0.3333333 1 0.5 1 0.6666667 1 0.8333333 1 1 1 0 0.96 0.1666667 0.96 0.3333333 0.96 0.5 0.96 0.6666667 0.96 0.8333333 0.96 1 0.96 0 0.92 0.1666667 0.92 0.3333333 0.92 0.5 0.92 0.6666667 0.92 0.8333333 0.92 1 0.92 0 0.88 0.1666667 0.88 0.3333333 0.88 0.5 0.88 0.6666667 0.88 0.8333333 0.88 1 0.88 0 0.84 0.1666667 0.84 0.3333333 0.84 0.5 0.84 0.6666667 0.84 0.8333333 0.84 1 0.84 0 0.8 0.1666667 0.8 0.3333333 0.8 0.5 0.8 0.6666667 0.8 0.8333333 0.8 1 0.8 0 0.76 0.1666667 0.76 0.3333333 0.76 0.5 0.76 0.6666667 0.76 0.8333333 0.76 1 0.76 0 0.72 0.1666667 0.72 0.3333333 0.72 0.5 0.72 0.6666667 0.72 0.8333333 0.72 1 0.72 0 0.68 0.1666667 0.68 0.3333333 0.68 0.5 0.68 0.6666667 0.68 0.8333333 0.68 1 0.68 0 0.64 0.1666667 0.64 0.3333333 0.64 0.5 0.64 0.6666667 0.64 0.8333333 0.64 1 0.64 0 0.6 0.1666667 0.6 0.3333333 0.6 0.5 0.6 0.6666667 0.6 0.8333333 0.6 1 0.6 0 0.56 0.1666667 0.56 0.3333333 0.56 0.5 0.56 0.6666667 0.56 0.8333333 0.56 1 0.56 0 0.52 0.1666667 0.52 0.3333333 0.52 0.5 0.52 0.6666667 0.52 0.8333333 0.52 1 0.52 0 0.48 0.1666667 0.48 0.3333333 0.48 0.5 0.48 0.6666667 0.48 0.8333333 0.48 1 0.48 0 0.44 0.1666667 0.44 0.3333333 0.44 0.5 0.44 0.6666667 0.44 0.8333333 0.44 1 0.44 0 0.4 0.1666667 0.4 0.3333333 0.4 0.5 0.4 0.6666667 0.4 0.8333333 0.4 1 0.4 0 0.36 0.1666667 0.36 0.3333333 0.36 0.5 0.36 0.6666667 0.36 0.8333333 0.36 1 0.36 0 0.32 0.1666667 0.32 0.3333333 0.32 0.5 0.32 0.6666667 0.32 0.8333333 0.32 1 0.32 0 0.28 0.1666667 0.28 0.3333333 0.28 0.5 0.28 0.6666667 0.28 0.8333333 0.28 1 0.28 0 0.24 0.1666667 0.24 0.3333333 0.24 0.5 0.24 0.6666667 0.24 0.8333333 0.24 1 0.24 0 0.2 0.1666667 0.2 0.3333333 0.2 0.5 0.2 0.6666667 0.2 0.8333333 0.2 1 0.2 0 0.16 0.1666667 0.16 0.3333333 0.16 0.5 0.16 0.6666667 0.16 0.8333333 0.16 1 0.16 0 0.12 0.1666667 0.12 0.3333333 0.12 0.5 0.12 0.6666667 0.12 0.8333333 0.12 1 0.12 0 0.08 0.1666667 0.08 0.3333333 0.08 0.5 0.08 0.6666667 0.08 0.8333333 0.08 1 0.08 0 0.04 0.1666667 0.04 0.3333333 0.04 0.5 0.04 0.6666667 0.04 0.8333333 0.04 1 0.04 0 0 0.1666667 0 0.3333333 0 0.5 0 0.6666667 0 0.8333333 0 1 0</float_array>
          <technique_common><accessor source="#dashplate_flat_body_megaramp-map-array" count="182" stride="2"><param name="S" type="float"/><param name="T" type="float"/></accessor></technique_common>
        </source>
        <vertices id="dashplate_flat_body_megaramp-vertices"><input semantic="POSITION" source="#dashplate_flat_body_megaramp-positions"/></vertices>
        <triangles material="dashplate_flat_body_megaramp-material" count="300">
          <input semantic="VERTEX" source="#dashplate_flat_body_megaramp-vertices" offset="0"/>
          <input semantic="NORMAL" source="#dashplate_flat_body_megaramp-normals" offset="1"/>
          <input semantic="TEXCOORD" source="#dashplate_flat_body_megaramp-map" offset="2" set="0"/>
          <p>0 0 0 1 0 1 8 0 8 0 0 0 8 0 8 7 0 7 1 0 1 2 0 2 9 0 9 1 0 1 9 0 9 8 0 8 2 0 2 3 0 3 10 0 10 2 0 2 10 0 10 9 0 9 3 0 3 4 0 4 11 0 11 3 0 3 11 0 11 10 0 10 4 0 4 5 0 5 12 0 12 4 0 4 12 0 12 11 0 11 5 0 5 6 0 6 13 0 13 5 0 5 13 0 13 12 0 12 7 0 7 8 0 8 15 0 15 7 0 7 15 0 15 14 0 14 8 0 8 9 0 9 16 0 16 8 0 8 16 0 16 15 0 15 9 0 9 10 0 10 17 0 17 9 0 9 17 0 17 16 0 16 10 0 10 11 0 11 18 0 18 10 0 10 18 0 18 17 0 17 11 0 11 12 0 12 19 0 19 11 0 11 19 0 19 18 0 18 12 0 12 13 0 13 20 0 20 12 0 12 20 0 20 19 0 19 14 0 14 15 0 15 22 0 22 14 0 14 22 0 22 21 0 21 15 0 15 16 0 16 23 0 23 15 0 15 23 0 23 22 0 22 16 0 16 17 0 17 24 0 24 16 0 16 24 0 24 23 0 23 17 0 17 18 0 18 25 0 25 17 0 17 25 0 25 24 0 24 18 0 18 19 0 19 26 0 26 18 0 18 26 0 26 25 0 25 19 0 19 20 0 20 27 0 27 19 0 19 27 0 27 26 0 26 21 0 21 22 0 22 29 0 29 21 0 21 29 0 29 28 0 28 22 0 22 23 0 23 30 0 30 22 0 22 30 0 30 29 0 29 23 0 23 24 0 24 31 0 31 23 0 23 31 0 31 30 0 30 24 0 24 25 0 25 32 0 32 24 0 24 32 0 32 31 0 31 25 0 25 26 0 26 33 0 33 25 0 25 33 0 33 32 0 32 26 0 26 27 0 27 34 0 34 26 0 26 34 0 34 33 0 33 28 0 28 29 0 29 36 0 36 28 0 28 36 0 36 35 0 35 29 0 29 30 0 30 37 0 37 29 0 29 37 0 37 36 0 36 30 0 30 31 0 31 38 0 38 30 0 30 38 0 38 37 0 37 31 0 31 32 0 32 39 0 39 31 0 31 39 0 39 38 0 38 32 0 32 33 0 33 40 0 40 32 0 32 40 0 40 39 0 39 33 0 33 34 0 34 41 0 41 33 0 33 41 0 41 40 0 40 35 0 35 36 0 36 43 0 43 35 0 35 43 0 43 42 0 42 36 0 36 37 0 37 44 0 44 36 0 36 44 0 44 43 0 43 37 0 37 38 0 38 45 0 45 37 0 37 45 0 45 44 0 44 38 0 38 39 0 39 46 0 46 38 0 38 46 0 46 45 0 45 39 0 39 40 0 40 47 0 47 39 0 39 47 0 47 46 0 46 40 0 40 41 0 41 48 0 48 40 0 40 48 0 48 47 0 47 42 0 42 43 0 43 50 0 50 42 0 42 50 0 50 49 0 49 43 0 43 44 0 44 51 0 51 43 0 43 51 0 51 50 0 50 44 0 44 45 0 45 52 0 52 44 0 44 52 0 52 51 0 51 45 0 45 46 0 46 53 0 53 45 0 45 53 0 53 52 0 52 46 0 46 47 0 47 54 0 54 46 0 46 54 0 54 53 0 53 47 0 47 48 0 48 55 0 55 47 0 47 55 0 55 54 0 54 49 0 49 50 0 50 57 0 57 49 0 49 57 0 57 56 0 56 50 0 50 51 0 51 58 0 58 50 0 50 58 0 58 57 0 57 51 0 51 52 0 52 59 0 59 51 0 51 59 0 59 58 0 58 52 0 52 53 0 53 60 0 60 52 0 52 60 0 60 59 0 59 53 0 53 54 0 54 61 0 61 53 0 53 61 0 61 60 0 60 54 0 54 55 0 55 62 0 62 54 0 54 62 0 62 61 0 61 56 0 56 57 0 57 64 0 64 56 0 56 64 0 64 63 0 63 57 0 57 58 0 58 65 0 65 57 0 57 65 0 65 64 0 64 58 0 58 59 0 59 66 0 66 58 0 58 66 0 66 65 0 65 59 0 59 60 0 60 67 0 67 59 0 59 67 0 67 66 0 66 60 0 60 61 0 61 68 0 68 60 0 60 68 0 68 67 0 67 61 0 61 62 0 62 69 0 69 61 0 61 69 0 69 68 0 68 63 0 63 64 0 64 71 0 71 63 0 63 71 0 71 70 0 70 64 0 64 65 0 65 72 0 72 64 0 64 72 0 72 71 0 71 65 0 65 66 0 66 73 0 73 65 0 65 73 0 73 72 0 72 66 0 66 67 0 67 74 0 74 66 0 66 74 0 74 73 0 73 67 0 67 68 0 68 75 0 75 67 0 67 75 0 75 74 0 74 68 0 68 69 0 69 76 0 76 68 0 68 76 0 76 75 0 75 70 0 70 71 0 71 78 0 78 70 0 70 78 0 78 77 0 77 71 0 71 72 0 72 79 0 79 71 0 71 79 0 79 78 0 78 72 0 72 73 0 73 80 0 80 72 0 72 80 0 80 79 0 79 73 0 73 74 0 74 81 0 81 73 0 73 81 0 81 80 0 80 74 0 74 75 0 75 82 0 82 74 0 74 82 0 82 81 0 81 75 0 75 76 0 76 83 0 83 75 0 75 83 0 83 82 0 82 77 0 77 78 0 78 85 0 85 77 0 77 85 0 85 84 0 84 78 0 78 79 0 79 86 0 86 78 0 78 86 0 86 85 0 85 79 0 79 80 0 80 87 0 87 79 0 79 87 0 87 86 0 86 80 0 80 81 0 81 88 0 88 80 0 80 88 0 88 87 0 87 81 0 81 82 0 82 89 0 89 81 0 81 89 0 89 88 0 88 82 0 82 83 0 83 90 0 90 82 0 82 90 0 90 89 0 89 84 0 84 85 0 85 92 0 92 84 0 84 92 0 92 91 0 91 85 0 85 86 0 86 93 0 93 85 0 85 93 0 93 92 0 92 86 0 86 87 0 87 94 0 94 86 0 86 94 0 94 93 0 93 87 0 87 88 0 88 95 0 95 87 0 87 95 0 95 94 0 94 88 0 88 89 0 89 96 0 96 88 0 88 96 0 96 95 0 95 89 0 89 90 0 90 97 0 97 89 0 89 97 0 97 96 0 96 91 0 91 92 0 92 99 0 99 91 0 91 99 0 99 98 0 98 92 0 92 93 0 93 100 0 100 92 0 92 100 0 100 99 0 99 93 0 93 94 0 94 101 0 101 93 0 93 101 0 101 100 0 100 94 0 94 95 0 95 102 0 102 94 0 94 102 0 102 101 0 101 95 0 95 96 0 96 103 0 103 95 0 95 103 0 103 102 0 102 96 0 96 97 0 97 104 0 104 96 0 96 104 0 104 103 0 103 98 0 98 99 0 99 106 0 106 98 0 98 106 0 106 105 0 105 99 0 99 100 0 100 107 0 107 99 0 99 107 0 107 106 0 106 100 0 100 101 0 101 108 0 108 100 0 100 108 0 108 107 0 107 101 0 101 102 0 102 109 0 109 101 0 101 109 0 109 108 0 108 102 0 102 103 0 103 110 0 110 102 0 102 110 0 110 109 0 109 103 0 103 104 0 104 111 0 111 103 0 103 111 0 111 110 0 110 105 0 105 106 0 106 113 0 113 105 0 105 113 0 113 112 0 112 106 0 106 107 0 107 114 0 114 106 0 106 114 0 114 113 0 113 107 0 107 108 0 108 115 0 115 107 0 107 115 0 115 114 0 114 108 0 108 109 0 109 116 0 116 108 0 108 116 0 116 115 0 115 109 0 109 110 0 110 117 0 117 109 0 109 117 0 117 116 0 116 110 0 110 111 0 111 118 0 118 110 0 110 118 0 118 117 0 117 112 0 112 113 0 113 120 0 120 112 0 112 120 0 120 119 0 119 113 0 113 114 0 114 121 0 121 113 0 113 121 0 121 120 0 120 114 0 114 115 0 115 122 0 122 114 0 114 122 0 122 121 0 121 115 0 115 116 0 116 123 0 123 115 0 115 123 0 123 122 0 122 116 0 116 117 0 117 124 0 124 116 0 116 124 0 124 123 0 123 117 0 117 118 0 118 125 0 125 117 0 117 125 0 125 124 0 124 119 0 119 120 0 120 127 0 127 119 0 119 127 0 127 126 0 126 120 0 120 121 0 121 128 0 128 120 0 120 128 0 128 127 0 127 121 0 121 122 0 122 129 0 129 121 0 121 129 0 129 128 0 128 122 0 122 123 0 123 130 0 130 122 0 122 130 0 130 129 0 129 123 0 123 124 0 124 131 0 131 123 0 123 131 0 131 130 0 130 124 0 124 125 0 125 132 0 132 124 0 124 132 0 132 131 0 131 126 0 126 127 0 127 134 0 134 126 0 126 134 0 134 133 0 133 127 0 127 128 0 128 135 0 135 127 0 127 135 0 135 134 0 134 128 0 128 129 0 129 136 0 136 128 0 128 136 0 136 135 0 135 129 0 129 130 0 130 137 0 137 129 0 129 137 0 137 136 0 136 130 0 130 131 0 131 138 0 138 130 0 130 138 0 138 137 0 137 131 0 131 132 0 132 139 0 139 131 0 131 139 0 139 138 0 138 133 0 133 134 0 134 141 0 141 133 0 133 141 0 141 140 0 140 134 0 134 135 0 135 142 0 142 134 0 134 142 0 142 141 0 141 135 0 135 136 0 136 143 0 143 135 0 135 143 0 143 142 0 142 136 0 136 137 0 137 144 0 144 136 0 136 144 0 144 143 0 143 137 0 137 138 0 138 145 0 145 137 0 137 145 0 145 144 0 144 138 0 138 139 0 139 146 0 146 138 0 138 146 0 146 145 0 145 140 0 140 141 0 141 148 0 148 140 0 140 148 0 148 147 0 147 141 0 141 142 0 142 149 0 149 141 0 141 149 0 149 148 0 148 142 0 142 143 0 143 150 0 150 142 0 142 150 0 150 149 0 149 143 0 143 144 0 144 151 0 151 143 0 143 151 0 151 150 0 150 144 0 144 145 0 145 152 0 152 144 0 144 152 0 152 151 0 151 145 0 145 146 0 146 153 0 153 145 0 145 153 0 153 152 0 152 147 0 147 148 0 148 155 0 155 147 0 147 155 0 155 154 0 154 148 0 148 149 0 149 156 0 156 148 0 148 156 0 156 155 0 155 149 0 149 150 0 150 157 0 157 149 0 149 157 0 157 156 0 156 150 0 150 151 0 151 158 0 158 150 0 150 158 0 158 157 0 157 151 0 151 152 0 152 159 0 159 151 0 151 159 0 159 158 0 158 152 0 152 153 0 153 160 0 160 152 0 152 160 0 160 159 0 159 154 0 154 155 0 155 162 0 162 154 0 154 162 0 162 161 0 161 155 0 155 156 0 156 163 0 163 155 0 155 163 0 163 162 0 162 156 0 156 157 0 157 164 0 164 156 0 156 164 0 164 163 0 163 157 0 157 158 0 158 165 0 165 157 0 157 165 0 165 164 0 164 158 0 158 159 0 159 166 0 166 158 0 158 166 0 166 165 0 165 159 0 159 160 0 160 167 0 167 159 0 159 167 0 167 166 0 166 161 0 161 162 0 162 169 0 169 161 0 161 169 0 169 168 0 168 162 0 162 163 0 163 170 0 170 162 0 162 170 0 170 169 0 169 163 0 163 164 0 164 171 0 171 163 0 163 171 0 171 170 0 170 164 0 164 165 0 165 172 0 172 164 0 164 172 0 172 171 0 171 165 0 165 166 0 166 173 0 173 165 0 165 173 0 173 172 0 172 166 0 166 167 0 167 174 0 174 166 0 166 174 0 174 173 0 173 168 0 168 169 0 169 176 0 176 168 0 168 176 0 176 175 0 175 169 0 169 170 0 170 177 0 177 169 0 169 177 0 177 176 0 176 170 0 170 171 0 171 178 0 178 170 0 170 178 0 178 177 0 177 171 0 171 172 0 172 179 0 179 171 0 171 179 0 179 178 0 178 172 0 172 173 0 173 180 0 180 172 0 172 180 0 180 179 0 179 173 0 173 174 0 174 181 0 181 173 0 173 181 0 181 180 0 180</p>
        </triangles>
      </mesh>
    </geometry>
  </library_geometries>
  <library_visual_scenes>
    <visual_scene id="Scene" name="Scene">
      <node id="dashplate_flat_body_megaramp" name="dashplate_flat_body_megaramp" type="NODE">
        <instance_geometry url="#dashplate_flat_body_megaramp-mesh">
          <bind_material><technique_common><instance_material symbol="dashplate_flat_body_megaramp-material" target="#dashplate_flat_body_megaramp-material"/></technique_common></bind_material>
        </instance_geometry>
      </node>
    </visual_scene>
  </library_visual_scenes>
  <scene><instance_visual_scene url="#Scene"/></scene>
</COLLADA>
