<?xml version="1.0" encoding="utf-8"?>
<COLLADA xmlns="http://www.collada.org/2005/11/COLLADASchema" version="1.4.1" xmlns:xsi="http://www.w3.org/2001/XMLSchema-instance">
  <asset>
    <contributor>
      <author>Blender User</author>
      <authoring_tool>Blender 3.6.4 commit date:2023-09-25, commit time:13:24, hash:21bfc5e7fe3f</authoring_tool>
    </contributor>
    <created>2024-06-23T21:56:17</created>
    <modified>2024-06-23T21:56:17</modified>
    <unit name="meter" meter="1"/>
    <up_axis>Z_UP</up_axis>
  </asset>
  <library_effects>
    <effect id="dashplate_flat_body_main-effect">
      <profile_COMMON>
        <technique sid="common">
          <lambert>
            <emission>
              <color sid="emission">0 0 0 1</color>
            </emission>
            <diffuse>
              <color sid="diffuse">0.8 0.8 0.8 1</color>
            </diffuse>
            <index_of_refraction>
              <float sid="ior">1.45</float>
            </index_of_refraction>
          </lambert>
        </technique>
      </profile_COMMON>
    </effect>
  </library_effects>
  <library_images/>
  <library_materials>
    <material id="dashplate_flat_body_main-material" name="dashplate_flat_body_main">
      <instance_effect url="#dashplate_flat_body_main-effect"/>
    </material>
  </library_materials>
  <library_geometries>
    <geometry id="dashplate_flat_body-mesh" name="dashplate_flat_body">
      <mesh>
        <source id="dashplate_flat_body-mesh-positions">
          <float_array id="dashplate_flat_body-mesh-positions-array" count="42">0 0 0 0 1 0 2 0 0 0 0 2 2 -2 0 -2 -2 0 -2 -2 -0.1 -2 2 -0.1 2 -2 -0.1 2 2 -0.1 -2 -2 0.01665657 -2 2 0.01665657 2 -2 0.01665657 2 2 0.01665657</float_array>
          <technique_common>
            <accessor source="#dashplate_flat_body-mesh-positions-array" count="14" stride="3">
              <param name="X" type="float"/>
              <param name="Y" type="float"/>
              <param name="Z" type="float"/>
            </accessor>
          </technique_common>
        </source>
        <source id="dashplate_flat_body-mesh-normals">
          <float_array id="dashplate_flat_body-mesh-normals-array" count="18">0 0 -1 0 0 1 -1 0 0 0 -1 0 1 0 0 0 1 0</float_array>
          <technique_common>
            <accessor source="#dashplate_flat_body-mesh-normals-array" count="6" stride="3">
              <param name="X" type="float"/>
              <param name="Y" type="float"/>
              <param name="Z" type="float"/>
            </accessor>
          </technique_common>
        </source>
        <source id="dashplate_flat_body-mesh-map">
          <float_array id="dashplate_flat_body-mesh-map-array" count="84">0.4929925 0.492645 0.4929925 1.73692e-4 0.9854639 0.492645 1.73711e-4 0.9998263 0.492645 0.9998263 0.492645 0.5073549 1.73711e-4 0.9998263 1.73689e-4 0.507355 0.492645 0.5073549 0.4929925 1.73692e-4 0.9854639 0.492645 0.9854638 1.73692e-4 0.5220649 0.5073549 0.5220649 0.9998263 0.5077024 0.9998263 0.5220649 0.5073549 0.5077024 0.9998263 0.5077024 0.5073549 0.5224123 0.5073549 0.5367748 0.5073549 0.5367748 0.9998263 0.5224123 0.9998263 0.5224123 0.5073549 0.5367748 0.9998263 0.507355 0.9998263 0.4929924 0.5073549 0.5073549 0.5073549 0.507355 0.9998263 0.4929924 0.5073549 0.4929925 0.9998263 1.73764e-4 1.73699e-4 0.4926451 0.0145362 1.73779e-4 0.0145362 1.73764e-4 1.73699e-4 0.4926451 0.0145362 0.4926451 1.73737e-4 1.73693e-4 0.5070075 0.4926451 0.0145362 1.73779e-4 0.0145362 1.73693e-4 0.5070075 0.492645 0.5070075 0.4926451 0.0145362</float_array>
          <technique_common>
            <accessor source="#dashplate_flat_body-mesh-map-array" count="42" stride="2">
              <param name="S" type="float"/>
              <param name="T" type="float"/>
            </accessor>
          </technique_common>
        </source>
        <vertices id="dashplate_flat_body-mesh-vertices">
          <input semantic="POSITION" source="#dashplate_flat_body-mesh-positions"/>
        </vertices>
        <lines count="33">
          <input semantic="VERTEX" source="#dashplate_flat_body-mesh-vertices" offset="0"/>
          <p>8 13 13 10 10 0 11 0 10 1 12 0 11 1 13 0 10 2 12 1 11 2 13 1 10 3 12 2 11 3 13 2 10 4 12 3 11 4 13 3 10 5 12 4 11 5 13 4 12 5 6 11 13 5 6 13 10 8 7 12 11 8 7 13 10 9</p>
        </lines>
        <triangles material="dashplate_flat_body_main-material" count="14">
          <input semantic="VERTEX" source="#dashplate_flat_body-mesh-vertices" offset="0"/>
          <input semantic="NORMAL" source="#dashplate_flat_body-mesh-normals" offset="1"/>
          <input semantic="TEXCOORD" source="#dashplate_flat_body-mesh-map" offset="2" set="0"/>
          <p>6 0 0 7 0 1 8 0 2 6 0 3 7 0 4 9 0 5 6 1 6 8 1 7 9 1 8 7 1 9 8 1 10 9 1 11 9 2 12 8 2 13 12 2 14 9 2 15 12 2 16 13 2 17 9 3 18 13 3 19 11 3 20 7 3 21 9 3 22 11 3 23 10 4 24 7 4 25 11 4 26 10 2 27 7 2 28 6 2 29 6 3 30 12 3 31 10 3 32 6 5 33 12 5 34 8 5 35 11 0 36 12 0 37 10 0 38 11 0 39 13 0 40 12 0 41</p>
        </triangles>
      </mesh>
    </geometry>
  </library_geometries>
  <library_visual_scenes>
    <visual_scene id="Scene" name="Scene">
      <node id="dashplate_flat_body" name="dashplate_flat_body" type="NODE">
        <matrix sid="transform">1 0 0 0 0 1 0 0 0 0 1 0 0 0 0 1</matrix>
        <instance_geometry url="#dashplate_flat_body-mesh" name="dashplate_flat_body">
          <bind_material>
            <technique_common>
              <instance_material symbol="dashplate_flat_body_main-material" target="#dashplate_flat_body_main-material"/>
            </technique_common>
          </bind_material>
        </instance_geometry>
      </node>
    </visual_scene>
  </library_visual_scenes>
  <scene>
    <instance_visual_scene url="#Scene"/>
  </scene>
</COLLADA>