<?xml version="1.0" encoding="utf-8"?>
<COLLADA xmlns="http://www.collada.org/2005/11/COLLADASchema" version="1.4.1">
  <asset><unit name="meter" meter="1"/><up_axis>Z_UP</up_axis></asset>
  <library_effects>
    <effect id="dashplate_flat_body_mega-effect">
      <profile_COMMON><technique sid="common"><lambert><diffuse><color>1 1 1 1</color></diffuse></lambert></technique></profile_COMMON>
    </effect>
  </library_effects>
  <library_materials>
    <material id="dashplate_flat_body_mega-material" name="dashplate_flat_body_main">
      <instance_effect url="#dashplate_flat_body_mega-effect"/>
    </material>
  </library_materials>
  <library_geometries>
    <geometry id="dashplate_flat_body_mega-mesh" name="dashplate_flat_body_mega">
      <mesh>
        <source id="dashplate_flat_body_mega-positions">
          <float_array id="dashplate_flat_body_mega-positions-array" count="1023">-4 -12 0.0166566 -3.2 -12 0.0166566 -2.4 -12 0.0166566 -1.6 -12 0.0166566 -0.8 -12 0.0166566 0 -12 0.0166566 0.8 -12 0.0166566 1.6 -12 0.0166566 2.4 -12 0.0166566 3.2 -12 0.0166566 4 -12 0.0166566 -4 -11.2 0.0166566 -3.2 -11.2 0.0166566 -2.4 -11.2 0.0166566 -1.6 -11.2 0.0166566 -0.8 -11.2 0.0166566 0 -11.2 0.0166566 0.8 -11.2 0.0166566 1.6 -11.2 0.0166566 2.4 -11.2 0.0166566 3.2 -11.2 0.0166566 4 -11.2 0.0166566 -4 -10.4 0.0166566 -3.2 -10.4 0.0166566 -2.4 -10.4 0.0166566 -1.6 -10.4 0.0166566 -0.8 -10.4 0.0166566 0 -10.4 0.0166566 0.8 -10.4 0.0166566 1.6 -10.4 0.0166566 2.4 -10.4 0.0166566 3.2 -10.4 0.0166566 4 -10.4 0.0166566 -4 -9.6 0.0166566 -3.2 -9.6 0.0166566 -2.4 -9.6 0.0166566 -1.6 -9.6 0.0166566 -0.8 -9.6 0.0166566 0 -9.6 0.0166566 0.8 -9.6 0.0166566 1.6 -9.6 0.0166566 2.4 -9.6 0.0166566 3.2 -9.6 0.0166566 4 -9.6 0.0166566 -4 -8.8 0.0166566 -3.2 -8.8 0.0166566 -2.4 -8.8 0.0166566 -1.6 -8.8 0.0166566 -0.8 -8.8 0.0166566 0 -8.8 0.0166566 0.8 -8.8 0.0166566 1.6 -8.8 0.0166566 2.4 -8.8 0.0166566 3.2 -8.8 0.0166566 4 -8.8 0.0166566 -4 -8 0.0166566 -3.2 -8 0.0166566 -2.4 -8 0.0166566 -1.6 -8 0.0166566 -0.8 -8 0.0166566 0 -8 0.0166566 0.8 -8 0.0166566 1.6 -8 0.0166566 2.4 -8 0.0166566 3.2 -8 0.0166566 4 -8 0.0166566 -4 -7.2 0.0166566 -3.2 -7.2 0.0166566 -2.4 -7.2 0.0166566 -1.6 -7.2 0.0166566 -0.8 -7.2 0.0166566 0 -7.2 0.0166566 0.8 -7.2 0.0166566 1.6 -7.2 0.0166566 2.4 -7.2 0.0166566 3.2 -7.2 0.0166566 4 -7.2 0.0166566 -4 -6.4 0.0166566 -3.2 -6.4 0.0166566 -2.4 -6.4 0.0166566 -1.6 -6.4 0.0166566 -0.8 -6.4 0.0166566 0 -6.4 0.0166566 0.8 -6.4 0.0166566 1.6 -6.4 0.0166566 2.4 -6.4 0.0166566 3.2 -6.4 0.0166566 4 -6.4 0.0166566 -4 -5.6 0.0166566 -3.2 -5.6 0.0166566 -2.4 -5.6 0.0166566 -1.6 -5.6 0.0166566 -0.8 -5.6 0.0166566 0 -5.6 0.0166566 0.8 -5.6 0.0166566 1.6 -5.6 0.0166566 2.4 -5.6 0.0166566 3.2 -5.6 0.0166566 4 -5.6 0.0166566 -4 -4.8 0.0166566 -3.2 -4.8 0.0166566 -2.4 -4.8 0.0166566 -1.6 -4.8 0.0166566 -0.8 -4.8 0.0166566 0 -4.8 0.0166566 0.8 -4.8 0.0166566 1.6 -4.8 0.0166566 2.4 -4.8 0.0166566 3.2 -4.8 0.0166566 4 -4.8 0.0166566 -4 -4 0.0166566 -3.2 -4 0.0166566 -2.4 -4 0.0166566 -1.6 -4 0.0166566 -0.8 -4 0.0166566 0 -4 0.0166566 0.8 -4 0.0166566 1.6 -4 0.0166566 2.4 -4 0.0166566 3.2 -4 0.0166566 4 -4 0.0166566 -4 -3.2 0.0166566 -3.2 -3.2 0.0166566 -2.4 -3.2 0.0166566 -1.6 -3.2 0.0166566 -0.8 -3.2 0.0166566 0 -3.2 0.0166566 0.8 -3.2 0.0166566 1.6 -3.2 0.0166566 2.4 -3.2 0.0166566 3.2 -3.2 0.0166566 4 -3.2 0.0166566 -4 -2.4 0.0166566 -3.2 -2.4 0.0166566 -2.4 -2.4 0.0166566 -1.6 -2.4 0.0166566 -0.8 -2.4 0.0166566 0 -2.4 0.0166566 0.8 -2.4 0.0166566 1.6 -2.4 0.0166566 2.4 -2.4 0.0166566 3.2 -2.4 0.0166566 4 -2.4 0.0166566 -4 -1.6 0.0166566 -3.2 -1.6 0.0166566 -2.4 -1.6 0.0166566 -1.6 -1.6 0.0166566 -0.8 -1.6 0.0166566 0 -1.6 0.0166566 0.8 -1.6 0.0166566 1.6 -1.6 0.0166566 2.4 -1.6 0.0166566 3.2 -1.6 0.0166566 4 -1.6 0.0166566 -4 -0.8 0.0166566 -3.2 -0.8 0.0166566 -2.4 -0.8 0.0166566 -1.6 -0.8 0.0166566 -0.8 -0.8 0.0166566 0 -0.8 0.0166566 0.8 -0.8 0.0166566 1.6 -0.8 0.0166566 2.4 -0.8 0.0166566 3.2 -0.8 0.0166566 4 -0.8 0.0166566 -4 0 0.0166566 -3.2 0 0.0166566 -2.4 0 0.0166566 -1.6 0 0.0166566 -0.8 0 0.0166566 0 0 0.0166566 0.8 0 0.0166566 1.6 0 0.0166566 2.4 0 0.0166566 3.2 0 0.0166566 4 0 0.0166566 -4 0.8 0.0166566 -3.2 0.8 0.0166566 -2.4 0.8 0.0166566 -1.6 0.8 0.0166566 -0.8 0.8 0.0166566 0 0.8 0.0166566 0.8 0.8 0.0166566 1.6 0.8 0.0166566 2.4 0.8 0.0166566 3.2 0.8 0.0166566 4 0.8 0.0166566 -4 1.6 0.0166566 -3.2 1.6 0.0166566 -2.4 1.6 0.0166566 -1.6 1.6 0.0166566 -0.8 1.6 0.0166566 0 1.6 0.0166566 0.8 1.6 0.0166566 1.6 1.6 0.0166566 2.4 1.6 0.0166566 3.2 1.6 0.0166566 4 1.6 0.0166566 -4 2.4 0.0166566 -3.2 2.4 0.0166566 -2.4 2.4 0.0166566 -1.6 2.4 0.0166566 -0.8 2.4 0.0166566 0 2.4 0.0166566 0.8 2.4 0.0166566 1.6 2.4 0.0166566 2.4 2.4 0.0166566 3.2 2.4 0.0166566 4 2.4 0.0166566 -4 3.2 0.0166566 -3.2 3.2 0.0166566 -2.4 3.2 0.0166566 -1.6 3.2 0.0166566 -0.8 3.2 0.0166566 0 3.2 0.0166566 0.8 3.2 0.0166566 1.6 3.2 0.0166566 2.4 3.2 0.0166566 3.2 3.2 0.0166566 4 3.2 0.0166566 -4 4 0.0166566 -3.2 4 0.0166566 -2.4 4 0.0166566 -1.6 4 0.0166566 -0.8 4 0.0166566 0 4 0.0166566 0.8 4 0.0166566 1.6 4 0.0166566 2.4 4 0.0166566 3.2 4 0.0166566 4 4 0.0166566 -4 4.8 0.0166566 -3.2 4.8 0.0166566 -2.4 4.8 0.0166566 -1.6 4.8 0.0166566 -0.8 4.8 0.0166566 0 4.8 0.0166566 0.8 4.8 0.0166566 1.6 4.8 0.0166566 2.4 4.8 0.0166566 3.2 4.8 0.0166566 4 4.8 0.0166566 -4 5.6 0.0166566 -3.2 5.6 0.0166566 -2.4 5.6 0.0166566 -1.6 5.6 0.0166566 -0.8 5.6 0.0166566 0 5.6 0.0166566 0.8 5.6 0.0166566 1.6 5.6 0.0166566 2.4 5.6 0.0166566 3.2 5.6 0.0166566 4 5.6 0.0166566 -4 6.4 0.0166566 -3.2 6.4 0.0166566 -2.4 6.4 0.0166566 -1.6 6.4 0.0166566 -0.8 6.4 0.0166566 0 6.4 0.0166566 0.8 6.4 0.0166566 1.6 6.4 0.0166566 2.4 6.4 0.0166566 3.2 6.4 0.0166566 4 6.4 0.0166566 -4 7.2 0.0166566 -3.2 7.2 0.0166566 -2.4 7.2 0.0166566 -1.6 7.2 0.0166566 -0.8 7.2 0.0166566 0 7.2 0.0166566 0.8 7.2 0.0166566 1.6 7.2 0.0166566 2.4 7.2 0.0166566 3.2 7.2 0.0166566 4 7.2 0.0166566 -4 8 0.0166566 -3.2 8 0.0166566 -2.4 8 0.0166566 -1.6 8 0.0166566 -0.8 8 0.0166566 0 8 0.0166566 0.8 8 0.0166566 1.6 8 0.0166566 2.4 8 0.0166566 3.2 8 0.0166566 4 8 0.0166566 -4 8.8 0.0166566 -3.2 8.8 0.0166566 -2.4 8.8 0.0166566 -1.6 8.8 0.0166566 -0.8 8.8 0.0166566 0 8.8 0.0166566 0.8 8.8 0.0166566 1.6 8.8 0.0166566 2.4 8.8 0.0166566 3.2 8.8 0.0166566 4 8.8 0.0166566 -4 9.6 0.0166566 -3.2 9.6 0.0166566 -2.4 9.6 0.0166566 -1.6 9.6 0.0166566 -0.8 9.6 0.0166566 0 9.6 0.0166566 0.8 9.6 0.0166566 1.6 9.6 0.0166566 2.4 9.6 0.0166566 3.2 9.6 0.0166566 4 9.6 0.0166566 -4 10.4 0.0166566 -3.2 10.4 0.0166566 -2.4 10.4 0.0166566 -1.6 10.4 0.0166566 -0.8 10.4 0.0166566 0 10.4 0.0166566 0.8 10.4 0.0166566 1.6 10.4 0.0166566 2.4 10.4 0.0166566 3.2 10.4 0.0166566 4 10.4 0.0166566 -4 11.2 0.0166566 -3.2 11.2 0.0166566 -2.4 11.2 0.0166566 -1.6 11.2 0.0166566 -0.8 11.2 0.0166566 0 11.2 0.0166566 0.8 11.2 0.0166566 1.6 11.2 0.0166566 2.4 11.2 0.0166566 3.2 11.2 0.0166566 4 11.2 0.0166566 -4 12 0.0166566 -3.2 12 0.0166566 -2.4 12 0.0166566 -1.6 12 0.0166566 -0.8 12 0.0166566 0 12 0.0166566 0.8 12 0.0166566 1.6 12 0.0166566 2.4 12 0.0166566 3.2 12 0.0166566 4 12 0.0166566</float_array>
          <technique_common><accessor source="#dashplate_flat_body_mega-positions-array" count="341" stride="3"><param name="X" type="float"/><param name="Y" type="float"/><param name="Z" type="float"/></accessor></technique_common>
        </source>
        <source id="dashplate_flat_body_mega-normals">
          <float_array id="dashplate_flat_body_mega-normals-array" count="3">0 0 1</float_array>
          <technique_common><accessor source="#dashplate_flat_body_mega-normals-array" count="1" stride="3"><param name="X" type="float"/><param name="Y" type="float"/><param name="Z" type="float"/></accessor></technique_common>
        </source>
        <source id="dashplate_flat_body_mega-map">
          <float_array id="dashplate_flat_body_mega-map-array" count="682">0 1 0.1 1 0.2 1 0.3 1 0.4 1 0.5 1 0.6 1 0.7 1 0.8 1 0.9 1 1 1 0 0.9666667 0.1 0.9666667 0.2 0.9666667 0.3 0.9666667 0.4 0.9666667 0.5 0.9666667 0.6 0.9666667 0.7 0.9666667 0.8 0.9666667 0.9 0.9666667 1 0.9666667 0 0.9333333 0.1 0.9333333 0.2 0.9333333 0.3 0.9333333 0.4 0.9333333 0.5 0.9333333 0.6 0.9333333 0.7 0.9333333 0.8 0.9333333 0.9 0.9333333 1 0.9333333 0 0.9 0.1 0.9 0.2 0.9 0.3 0.9 0.4 0.9 0.5 0.9 0.6 0.9 0.7 0.9 0.8 0.9 0.9 0.9 1 0.9 0 0.8666667 0.1 0.8666667 0.2 0.8666667 0.3 0.8666667 0.4 0.8666667 0.5 0.8666667 0.6 0.8666667 0.7 0.8666667 0.8 0.8666667 0.9 0.8666667 1 0.8666667 0 0.8333333 0.1 0.8333333 0.2 0.8333333 0.3 0.8333333 0.4 0.8333333 0.5 0.8333333 0.6 0.8333333 0.7 0.8333333 0.8 0.8333333 0.9 0.8333333 1 0.8333333 0 0.8 0.1 0.8 0.2 0.8 0.3 0.8 0.4 0.8 0.5 0.8 0.6 0.8 0.7 0.8 0.8 0.8 0.9 0.8 1 0.8 0 0.7666667 0.1 0.7666667 0.2 0.7666667 0.3 0.7666667 0.4 0.7666667 0.5 0.7666667 0.6 0.7666667 0.7 0.7666667 0.8 0.7666667 0.9 0.7666667 1 0.7666667 0 0.7333333 0.1 0.7333333 0.2 0.7333333 0.3 0.7333333 0.4 0.7333333 0.5 0.7333333 0.6 0.7333333 0.7 0.7333333 0.8 0.7333333 0.9 0.7333333 1 0.7333333 0 0.7 0.1 0.7 0.2 0.7 0.3 0.7 0.4 0.7 0.5 0.7 0.6 0.7 0.7 0.7 0.8 0.7 0.9 0.7 1 0.7 0 0.6666667 0.1 0.6666667 0.2 0.6666667 0.3 0.6666667 0.4 0.6666667 0.5 0.6666667 0.6 0.6666667 0.7 0.6666667 0.8 0.6666667 0.9 0.6666667 1 0.6666667 0 0.6333333 0.1 0.6333333 0.2 0.6333333 0.3 0.6333333 0.4 0.6333333 0.5 0.6333333 0.6 0.6333333 0.7 0.6333333 0.8 0.6333333 0.9 0.6333333 1 0.6333333 0 0.6 0.1 0.6 0.2 0.6 0.3 0.6 0.4 0.6 0.5 0.6 0.6 0.6 0.7 0.6 0.8 0.6 0.9 0.6 1 0.6 0 0.5666667 0.1 0.5666667 0.2 0.5666667 0.3 0.5666667 0.4 0.5666667 0.5 0.5666667 0.6 0.5666667 0.7 0.5666667 0.8 0.5666667 0.9 0.5666667 1 0.5666667 0 0.5333333 0.1 0.5333333 0.2 0.5333333 0.3 0.5333333 0.4 0.5333333 0.5 0.5333333 0.6 0.5333333 0.7 0.5333333 0.8 0.5333333 0.9 0.5333333 1 0.5333333 0 0.5 0.1 0.5 0.2 0.5 0.3 0.5 0.4 0.5 0.5 0.5 0.6 0.5 0.7 0.5 0.8 0.5 0.9 0.5 1 0.5 0 0.4666667 0.1 0.4666667 0.2 0.4666667 0.3 0.4666667 0.4 0.4666667 0.5 0.4666667 0.6 0.4666667 0.7 0.4666667 0.8 0.4666667 0.9 0.4666667 1 0.4666667 0 0.4333333 0.1 0.4333333 0.2 0.4333333 0.3 0.4333333 0.4 0.4333333 0.5 0.4333333 0.6 0.4333333 0.7 0.4333333 0.8 0.4333333 0.9 0.4333333 1 0.4333333 0 0.4 0.1 0.4 0.2 0.4 0.3 0.4 0.4 0.4 0.5 0.4 0.6 0.4 0.7 0.4 0.8 0.4 0.9 0.4 1 0.4 0 0.3666667 0.1 0.3666667 0.2 0.3666667 0.3 0.3666667 0.4 0.3666667 0.5 0.3666667 0.6 0.3666667 0.7 0.3666667 0.8 0.3666667 0.9 0.3666667 1 0.3666667 0 0.3333333 0.1 0.3333333 0.2 0.3333333 0.3 0.3333333 0.4 0.3333333 0.5 0.3333333 0.6 0.3333333 0.7 0.3333333 0.8 0.3333333 0.9 0.3333333 1 0.3333333 0 0.3 0.1 0.3 0.2 0.3 0.3 0.3 0.4 0.3 0.5 0.3 0.6 0.3 0.7 0.3 0.8 0.3 0.9 0.3 1 0.3 0 0.2666667 0.1 0.2666667 0.2 0.2666667 0.3 0.2666667 0.4 0.2666667 0.5 0.2666667 0.6 0.2666667 0.7 0.2666667 0.8 0.2666667 0.9 0.2666667 1 0.2666667 0 0.2333333 0.1 0.2333333 0.2 0.2333333 0.3 0.2333333 0.4 0.2333333 0.5 0.2333333 0.6 0.2333333 0.7 0.2333333 0.8 0.2333333 0.9 0.2333333 1 0.2333333 0 0.2 0.1 0.2 0.2 0.2 0.3 0.2 0.4 0.2 0.5 0.2 0.6 0.2 0.7 0.2 0.8 0.2 0.9 0.2 1 0.2 0 0.1666667 0.1 0.1666667 0.2 0.1666667 0.3 0.1666667 0.4 0.1666667 0.5 0.1666667 0.6 0.1666667 0.7 0.1666667 0.8 0.1666667 0.9 0.1666667 1 0.1666667 0 0.1333333 0.1 0.1333333 0.2 0.1333333 0.3 0.1333333 0.4 0.1333333 0.5 0.1333333 0.6 0.1333333 0.7 0.1333333 0.8 0.1333333 0.9 0.1333333 1 0.1333333 0 0.1 0.1 0.1 0.2 0.1 0.3 0.1 0.4 0.1 0.5 0.1 0.6 0.1 0.7 0.1 0.8 0.1 0.9 0.1 1 0.1 0 0.06666667 0.1 0.06666667 0.2 0.06666667 0.3 0.06666667 0.4 0.06666667 0.5 0.06666667 0.6 0.06666667 0.7 0.06666667 0.8 0.06666667 0.9 0.06666667 1 0.06666667 0 0.03333333 0.1 0.03333333 0.2 0.03333333 0.3 0.03333333 0.4 0.03333333 0.5 0.03333333 0.6 0.03333333 0.7 0.03333333 0.8 0.03333333 0.9 0.03333333 1 0.03333333 0 0 0.1 0 0.2 0 0.3 0 0.4 0 0.5 0 0.6 0 0.7 0 0.8 0 0.9 0 1 0</float_array>
          <technique_common><accessor source="#dashplate_flat_body_mega-map-array" count="341" stride="2"><param name="S" type="float"/><param name="T" type="float"/></accessor></technique_common>
        </source>
        <vertices id="dashplate_flat_body_mega-vertices"><input semantic="POSITION" source="#dashplate_flat_body_mega-positions"/></vertices>
        <triangles material="dashplate_flat_body_mega-material" count="600">
          <input semantic="VERTEX" source="#dashplate_flat_body_mega-vertices" offset="0"/>
          <input semantic="NORMAL" source="#dashplate_flat_body_mega-normals" offset="1"/>
          <input semantic="TEXCOORD" source="#dashplate_flat_body_mega-map" offset="2" set="0"/>
          <p>0 1 12 0 12 11 1 2 13 1 13 12 2 3 14 2 14 13 3 4 15 3 15 14 4 5 16 4 16 15 5 6 17 5 17 16 6 7 18 6 18 17 7 8 19 7 19 18 8 9 20 8 20 19 9 10 21 9 21 20 11 12 23 11 23 22 12 13 24 12 24 23 13 14 25 13 25 24 14 15 26 14 26 25 15 16 27 15 27 26 16 17 28 16 28 27 17 18 29 17 29 28 18 19 30 18 30 29 19 20 31 19 31 30 20 21 32 20 32 31 22 23 34 22 34 33 23 24 35 23 35 34 24 25 36 24 36 35 25 26 37 25 37 36 26 27 38 26 38 37 27 28 39 27 39 38 28 29 40 28 40 39 29 30 41 29 41 40 30 31 42 30 42 41 31 32 43 31 43 42 33 34 45 33 45 44 34 35 46 34 46 45 35 36 47 35 47 46 36 37 48 36 48 47 37 38 49 37 49 48 38 39 50 38 50 49 39 40 51 39 51 50 40 41 52 40 52 51 41 42 53 41 53 52 42 43 54 42 54 53 44 45 56 44 56 55 45 46 57 45 57 56 46 47 58 46 58 57 47 48 59 47 59 58 48 49 60 48 60 59 49 50 61 49 61 60 50 51 62 50 62 61 51 52 63 51 63 62 52 53 64 52 64 63 53 54 65 53 65 64 55 56 67 55 67 66 56 57 68 56 68 67 57 58 69 57 69 68 58 59 70 58 70 69 59 60 71 59 71 70 60 61 72 60 72 71 61 62 73 61 73 72 62 63 74 62 74 73 63 64 75 63 75 74 64 65 76 64 76 75 66 67 78 66 78 77 67 68 79 67 79 78 68 69 80 68 80 79 69 70 81 69 81 80 70 71 82 70 82 81 71 72 83 71 83 82 72 73 84 72 84 83 73 74 85 73 85 84 74 75 86 74 86 85 75 76 87 75 87 86 77 78 89 77 89 88 78 79 90 78 90 89 79 80 91 79 91 90 80 81 92 80 92 91 81 82 93 81 93 92 82 83 94 82 94 93 83 84 95 83 95 94 84 85 96 84 96 95 85 86 97 85 97 96 86 87 98 86 98 97 88 89 100 88 100 99 89 90 101 89 101 100 90 91 102 90 102 101 91 92 103 91 103 102 92 93 104 92 104 103 93 94 105 93 105 104 94 95 106 94 106 105 95 96 107 95 107 106 96 97 108 96 108 107 97 98 109 97 109 108 99 100 111 99 111 110 100 101 112 100 112 111 101 102 113 101 113 112 102 103 114 102 114 113 103 104 115 103 115 114 104 105 116 104 116 115 105 106 117 105 117 116 106 107 118 106 118 117 107 108 119 107 119 118 108 109 120 108 120 119 110 111 122 110 122 121 111 112 123 111 123 122 112 113 124 112 124 123 113 114 125 113 125 124 114 115 126 114 126 125 115 116 127 115 127 126 116 117 128 116 128 127 117 118 129 117 129 128 118 119 130 118 130 129 119 120 131 119 131 130 121 122 133 121 133 132 122 123 134 122 134 133 123 124 135 123 135 134 124 125 136 124 136 135 125 126 137 125 137 136 126 127 138 126 138 137 127 128 139 127 139 138 128 129 140 128 140 139 129 130 141 129 141 140 130 131 142 130 142 141 132 133 144 132 144 143 133 134 145 133 145 144 134 135 146 134 146 145 135 136 147 135 147 146 136 137 148 136 148 147 137 138 149 137 149 148 138 139 150 138 150 149 139 140 151 139 151 150 140 141 152 140 152 151 141 142 153 141 153 152 143 144 155 143 155 154 144 145 156 144 156 155 145 146 157 145 157 156 146 147 158 146 158 157 147 148 159 147 159 158 148 149 160 148 160 159 149 150 161 149 161 160 150 151 162 150 162 161 151 152 163 151 163 162 152 153 164 152 164 163 154 155 166 154 166 165 155 156 167 155 167 166 156 157 168 156 168 167 157 158 169 157 169 168 158 159 170 158 170 169 159 160 171 159 171 170 160 161 172 160 172 171 161 162 173 161 173 172 162 163 174 162 174 173 163 164 175 163 175 174 165 166 177 165 177 176 166 167 178 166 178 177 167 168 179 167 179 178 168 169 180 168 180 179 169 170 181 169 181 180 170 171 182 170 182 181 171 172 183 171 183 182 172 173 184 172 184 183 173 174 185 173 185 184 174 175 186 174 186 185 176 177 188 176 188 187 177 178 189 177 189 188 178 179 190 178 190 189 179 180 191 179 191 190 180 181 192 180 192 191 181 182 193 181 193 192 182 183 194 182 194 193 183 184 195 183 195 194 184 185 196 184 196 195 185 186 197 185 197 196 187 188 199 187 199 198 188 189 200 188 200 199 189 190 201 189 201 200 190 191 202 190 202 201 191 192 203 191 203 202 192 193 204 192 204 203 193 194 205 193 205 204 194 195 206 194 206 205 195 196 207 195 207 206 196 197 208 196 208 207 198 199 210 198 210 209 199 200 211 199 211 210 200 201 212 200 212 211 201 202 213 201 213 212 202 203 214 202 214 213 203 204 215 203 215 214 204 205 216 204 216 215 205 206 217 205 217 216 206 207 218 206 218 217 207 208 219 207 219 218 209 210 221 209 221 220 210 211 222 210 222 221 211 212 223 211 223 222 212 213 224 212 224 223 213 214 225 213 225 224 214 215 226 214 226 225 215 216 227 215 227 226 216 217 228 216 228 227 217 218 229 217 229 228 218 219 230 218 230 229 220 221 232 220 232 231 221 222 233 221 233 232 222 223 234 222 234 233 223 224 235 223 235 234 224 225 236 224 236 235 225 226 237 225 237 236 226 227 238 226 238 237 227 228 239 227 239 238 228 229 240 228 240 239 229 230 241 229 241 240 231 232 243 231 243 242 232 233 244 232 244 243 233 234 245 233 245 244 234 235 246 234 246 245 235 236 247 235 247 246 236 237 248 236 248 247 237 238 249 237 249 248 238 239 250 238 250 249 239 240 251 239 251 250 240 241 252 240 252 251 242 243 254 242 254 253 243 244 255 243 255 254 244 245 256 244 256 255 245 246 257 245 257 256 246 247 258 246 258 257 247 248 259 247 259 258 248 249 260 248 260 259 249 250 261 249 261 260 250 251 262 250 262 261 251 252 263 251 263 262 253 254 265 253 265 264 254 255 266 254 266 265 255 256 267 255 267 266 256 257 268 256 268 267 257 258 269 257 269 268 258 259 270 258 270 269 259 260 271 259 271 270 260 261 272 260 272 271 261 262 273 261 273 272 262 263 274 262 274 273 264 265 276 264 276 275 265 266 277 265 277 276 266 267 278 266 278 277 267 268 279 267 279 278 268 269 280 268 280 279 269 270 281 269 281 280 270 271 282 270 282 281 271 272 283 271 283 282 272 273 284 272 284 283 273 274 285 273 285 284 275 276 287 275 287 286 276 277 288 276 288 287 277 278 289 277 289 288 278 279 290 278 290 289 279 280 291 279 291 290 280 281 292 280 292 291 281 282 293 281 293 292 282 283 294 282 294 293 283 284 295 283 295 294 284 285 296 284 296 295 286 287 298 286 298 297 287 288 299 287 299 298 288 289 300 288 300 299 289 290 301 289 301 300 290 291 302 290 302 301 291 292 303 291 303 302 292 293 304 292 304 303 293 294 305 293 305 304 294 295 306 294 306 305 295 296 307 295 307 306 297 298 309 297 309 308 298 299 310 298 310 309 299 300 311 299 311 310 300 301 312 300 312 311 301 302 313 301 313 312 302 303 314 302 314 313 303 304 315 303 315 314 304 305 316 304 316 315 305 306 317 305 317 316 306 307 318 306 318 317 308 309 320 308 320 319 309 310 321 309 321 320 310 311 322 310 322 321 311 312 323 311 323 322 312 313 324 312 324 323 313 314 325 313 325 324 314 315 326 314 326 325 315 316 327 315 327 326 316 317 328 316 328 327 317 318 329 317 329 328 319 320 331 319 331 330 320 321 332 320 332 331 321 322 333 321 333 332 322 323 334 322 334 333 323 324 335 323 335 334 324 325 336 324 336 335 325 326 337 325 337 336 326 327 338 326 338 337 327 328 339 327 339 338 328 329 340 328 340 339</p>
        </triangles>
      </mesh>
    </geometry>
  </library_geometries>
  <library_visual_scenes>
    <visual_scene id="Scene" name="Scene">
      <node id="dashplate_flat_body_mega" name="dashplate_flat_body_mega" type="NODE">
        <instance_geometry url="#dashplate_flat_body_mega-mesh">
          <bind_material><technique_common><instance_material symbol="dashplate_flat_body_mega-material" target="#dashplate_flat_body_mega-material"/></technique_common></bind_material>
        </instance_geometry>
      </node>
    </visual_scene>
  </library_visual_scenes>
  <scene><instance_visual_scene url="#Scene"/></scene>
</COLLADA>
