<?xml version="1.0" encoding="utf-8"?>
<COLLADA xmlns="http://www.collada.org/2005/11/COLLADASchema" version="1.4.1">
  <asset><unit name="meter" meter="1"/><up_axis>Z_UP</up_axis></asset>
  <library_effects>
    <effect id="dashplate_flat_body_xl-effect">
      <profile_COMMON><technique sid="common"><lambert><diffuse><color>1 1 1 1</color></diffuse></lambert></technique></profile_COMMON>
    </effect>
  </library_effects>
  <library_materials>
    <material id="dashplate_flat_body_xl-material" name="dashplate_flat_body_main">
      <instance_effect url="#dashplate_flat_body_xl-effect"/>
    </material>
  </library_materials>
  <library_geometries>
    <geometry id="dashplate_flat_body_xl-mesh" name="dashplate_flat_body_xl">
      <mesh>
        <source id="dashplate_flat_body_xl-positions">
          <float_array id="dashplate_flat_body_xl-positions-array" count="195">-3 -9 0.0166566 -1.5 -9 0.0166566 0 -9 0.0166566 1.5 -9 0.0166566 3 -9 0.0166566 -3 -7.5 0.0166566 -1.5 -7.5 0.0166566 0 -7.5 0.0166566 1.5 -7.5 0.0166566 3 -7.5 0.0166566 -3 -6 0.0166566 -1.5 -6 0.0166566 0 -6 0.0166566 1.5 -6 0.0166566 3 -6 0.0166566 -3 -4.5 0.0166566 -1.5 -4.5 0.0166566 0 -4.5 0.0166566 1.5 -4.5 0.0166566 3 -4.5 0.0166566 -3 -3 0.0166566 -1.5 -3 0.0166566 0 -3 0.0166566 1.5 -3 0.0166566 3 -3 0.0166566 -3 -1.5 0.0166566 -1.5 -1.5 0.0166566 0 -1.5 0.0166566 1.5 -1.5 0.0166566 3 -1.5 0.0166566 -3 0 0.0166566 -1.5 0 0.0166566 0 0 0.0166566 1.5 0 0.0166566 3 0 0.0166566 -3 1.5 0.0166566 -1.5 1.5 0.0166566 0 1.5 0.0166566 1.5 1.5 0.0166566 3 1.5 0.0166566 -3 3 0.0166566 -1.5 3 0.0166566 0 3 0.0166566 1.5 3 0.0166566 3 3 0.0166566 -3 4.5 0.0166566 -1.5 4.5 0.0166566 0 4.5 0.0166566 1.5 4.5 0.0166566 3 4.5 0.0166566 -3 6 0.0166566 -1.5 6 0.0166566 0 6 0.0166566 1.5 6 0.0166566 3 6 0.0166566 -3 7.5 0.0166566 -1.5 7.5 0.0166566 0 7.5 0.0166566 1.5 7.5 0.0166566 3 7.5 0.0166566 -3 9 0.0166566 -1.5 9 0.0166566 0 9 0.0166566 1.5 9 0.0166566 3 9 0.0166566</float_array>
          <technique_common><accessor source="#dashplate_flat_body_xl-positions-array" count="65" stride="3"><param name="X" type="float"/><param name="Y" type="float"/><param name="Z" type="float"/></accessor></technique_common>
        </source>
        <source id="dashplate_flat_body_xl-normals">
          <float_array id="dashplate_flat_body_xl-normals-array" count="3">0 0 1</float_array>
          <technique_common><accessor source="#dashplate_flat_body_xl-normals-array" count="1" stride="3"><param name="X" type="float"/><param name="Y" type="float"/><param name="Z" type="float"/></accessor></technique_common>
        </source>
        <source id="dashplate_flat_body_xl-map">
          <float_array id="dashplate_flat_body_xl-map-array" count="130">0 1 0.25 1 0.5 1 0.75 1 1 1 0 0.9166667 0.25 0.9166667 0.5 0.9166667 0.75 0.9166667 1 0.9166667 0 0.8333333 0.25 0.8333333 0.5 0.8333333 0.75 0.8333333 1 0.8333333 0 0.75 0.25 0.75 0.5 0.75 0.75 0.75 1 0.75 0 0.6666667 0.25 0.6666667 0.5 0.6666667 0.75 0.6666667 1 0.6666667 0 0.5833333 0.25 0.5833333 0.5 0.5833333 0.75 0.5833333 1 0.5833333 0 0.5 0.25 0.5 0.5 0.5 0.75 0.5 1 0.5 0 0.4166667 0.25 0.4166667 0.5 0.4166667 0.75 0.4166667 1 0.4166667 0 0.3333333 0.25 0.3333333 0.5 0.3333333 0.75 0.3333333 1 0.3333333 0 0.25 0.25 0.25 0.5 0.25 0.75 0.25 1 0.25 0 0.1666667 0.25 0.1666667 0.5 0.1666667 0.75 0.1666667 1 0.1666667 0 0.08333333 0.25 0.08333333 0.5 0.08333333 0.75 0.08333333 1 0.08333333 0 0 0.25 0 0.5 0 0.75 0 1 0</float_array>
          <technique_common><accessor source="#dashplate_flat_body_xl-map-array" count="65" stride="2"><param name="S" type="float"/><param name="T" type="float"/></accessor></technique_common>
        </source>
        <vertices id="dashplate_flat_body_xl-vertices"><input semantic="POSITION" source="#dashplate_flat_body_xl-positions"/></vertices>
        <triangles material="dashplate_flat_body_xl-material" count="48">
          <input semantic="VERTEX" source="#dashplate_flat_body_xl-vertices" offset="0"/>
          <input semantic="NORMAL" source="#dashplate_flat_body_xl-normals" offset="1"/>
          <input semantic="TEXCOORD" source="#dashplate_flat_body_xl-map" offset="2" set="0"/>
          <p>0 1 6 0 6 5 1 2 7 1 7 6 2 3 8 2 8 7 3 4 9 3 9 8 5 6 11 5 11 10 6 7 12 6 12 11 7 8 13 7 13 12 8 9 14 8 14 13 10 11 16 10 16 15 11 12 17 11 17 16 12 13 18 12 18 17 13 14 19 13 19 18 15 16 21 15 21 20 16 17 22 16 22 21 17 18 23 17 23 22 18 19 24 18 24 23 20 21 26 20 26 25 21 22 27 21 27 26 22 23 28 22 28 27 23 24 29 23 29 28 25 26 31 25 31 30 26 27 32 26 32 31 27 28 33 27 33 32 28 29 34 28 34 33 30 31 36 30 36 35 31 32 37 31 37 36 32 33 38 32 38 37 33 34 39 33 39 38 35 36 41 35 41 40 36 37 42 36 42 41 37 38 43 37 43 42 38 39 44 38 44 43 40 41 46 40 46 45 41 42 47 41 47 46 42 43 48 42 48 47 43 44 49 43 49 48 45 46 51 45 51 50 46 47 52 46 52 51 47 48 53 47 53 52 48 49 54 48 54 53 50 51 56 50 56 55 51 52 57 51 57 56 52 53 58 52 58 57 53 54 59 53 59 58 55 56 61 55 61 60 56 57 62 56 62 61 57 58 63 57 63 62 58 59 64 58 64 63</p>
        </triangles>
      </mesh>
    </geometry>
  </library_geometries>
  <library_visual_scenes>
    <visual_scene id="Scene" name="Scene">
      <node id="dashplate_flat_body_xl" name="dashplate_flat_body_xl" type="NODE">
        <instance_geometry url="#dashplate_flat_body_xl-mesh">
          <bind_material><technique_common><instance_material symbol="dashplate_flat_body_xl-material" target="#dashplate_flat_body_xl-material"/></technique_common></bind_material>
        </instance_geometry>
      </node>
    </visual_scene>
  </library_visual_scenes>
  <scene><instance_visual_scene url="#Scene"/></scene>
</COLLADA>
