<?xml version="1.0" encoding="utf-8"?>
<COLLADA xmlns="http://www.collada.org/2005/11/COLLADASchema" version="1.4.1">
  <asset><unit name="meter" meter="1"/><up_axis>Z_UP</up_axis></asset>
  <library_effects>
    <effect id="dashplate_flat_body_jump-effect">
      <profile_COMMON><technique sid="common"><lambert><diffuse><color>1 1 1 1</color></diffuse></lambert></technique></profile_COMMON>
    </effect>
  </library_effects>
  <library_materials>
    <material id="dashplate_flat_body_jump-material" name="dashplate_flat_body_main">
      <instance_effect url="#dashplate_flat_body_jump-effect"/>
    </material>
  </library_materials>
  <library_geometries>
    <geometry id="dashplate_flat_body_jump-mesh" name="dashplate_flat_body_jump">
      <mesh>
        <source id="dashplate_flat_body_jump-positions">
          <float_array id="dashplate_flat_body_jump-positions-array" count="378">-4 -10 7.01666 -2.4 -10 7.01666 -0.8 -10 7.01666 0.8 -10 7.01666 2.4 -10 7.01666 4 -10 7.01666 -4 -9 6.66666 -2.4 -9 6.66666 -0.8 -9 6.66666 0.8 -9 6.66666 2.4 -9 6.66666 4 -9 6.66666 -4 -8 6.31666 -2.4 -8 6.31666 -0.8 -8 6.31666 0.8 -8 6.31666 2.4 -8 6.31666 4 -8 6.31666 -4 -7 5.96666 -2.4 -7 5.96666 -0.8 -7 5.96666 0.8 -7 5.96666 2.4 -7 5.96666 4 -7 5.96666 -4 -6 5.61666 -2.4 -6 5.61666 -0.8 -6 5.61666 0.8 -6 5.61666 2.4 -6 5.61666 4 -6 5.61666 -4 -5 5.26666 -2.4 -5 5.26666 -0.8 -5 5.26666 0.8 -5 5.26666 2.4 -5 5.26666 4 -5 5.26666 -4 -4 4.91666 -2.4 -4 4.91666 -0.8 -4 4.91666 0.8 -4 4.91666 2.4 -4 4.91666 4 -4 4.91666 -4 -3 4.56666 -2.4 -3 4.56666 -0.8 -3 4.56666 0.8 -3 4.56666 2.4 -3 4.56666 4 -3 4.56666 -4 -2 4.21666 -2.4 -2 4.21666 -0.8 -2 4.21666 0.8 -2 4.21666 2.4 -2 4.21666 4 -2 4.21666 -4 -1 3.86666 -2.4 -1 3.86666 -0.8 -1 3.86666 0.8 -1 3.86666 2.4 -1 3.86666 4 -1 3.86666 -4 0 3.51666 -2.4 0 3.51666 -0.8 0 3.51666 0.8 0 3.51666 2.4 0 3.51666 4 0 3.51666 -4 1 3.16666 -2.4 1 3.16666 -0.8 1 3.16666 0.8 1 3.16666 2.4 1 3.16666 4 1 3.16666 -4 2 2.81666 -2.4 2 2.81666 -0.8 2 2.81666 0.8 2 2.81666 2.4 2 2.81666 4 2 2.81666 -4 3 2.46666 -2.4 3 2.46666 -0.8 3 2.46666 0.8 3 2.46666 2.4 3 2.46666 4 3 2.46666 -4 4 2.11666 -2.4 4 2.11666 -0.8 4 2.11666 0.8 4 2.11666 2.4 4 2.11666 4 4 2.11666 -4 5 1.76666 -2.4 5 1.76666 -0.8 5 1.76666 0.8 5 1.76666 2.4 5 1.76666 4 5 1.76666 -4 6 1.41666 -2.4 6 1.41666 -0.8 6 1.41666 0.8 6 1.41666 2.4 6 1.41666 4 6 1.41666 -4 7 1.06666 -2.4 7 1.06666 -0.8 7 1.06666 0.8 7 1.06666 2.4 7 1.06666 4 7 1.06666 -4 8 0.716657 -2.4 8 0.716657 -0.8 8 0.716657 0.8 8 0.716657 2.4 8 0.716657 4 8 0.716657 -4 9 0.366657 -2.4 9 0.366657 -0.8 9 0.366657 0.8 9 0.366657 2.4 9 0.366657 4 9 0.366657 -4 10 0.0166566 -2.4 10 0.0166566 -0.8 10 0.0166566 0.8 10 0.0166566 2.4 10 0.0166566 4 10 0.0166566</float_array>
          <technique_common><accessor source="#dashplate_flat_body_jump-positions-array" count="126" stride="3"><param name="X" type="float"/><param name="Y" type="float"/><param name="Z" type="float"/></accessor></technique_common>
        </source>
        <source id="dashplate_flat_body_jump-normals">
          <float_array id="dashplate_flat_body_jump-normals-array" count="3">0 0 1</float_array>
          <technique_common><accessor source="#dashplate_flat_body_jump-normals-array" count="1" stride="3"><param name="X" type="float"/><param name="Y" type="float"/><param name="Z" type="float"/></accessor></technique_common>
        </source>
        <source id="dashplate_flat_body_jump-map">
          <float_array id="dashplate_flat_body_jump-map-array" count="252">0 1 0.2 1 0.4 1 0.6 1 0.8 1 1 1 0 0.95 0.2 0.95 0.4 0.95 0.6 0.95 0.8 0.95 1 0.95 0 0.9 0.2 0.9 0.4 0.9 0.6 0.9 0.8 0.9 1 0.9 0 0.85 0.2 0.85 0.4 0.85 0.6 0.85 0.8 0.85 1 0.85 0 0.8 0.2 0.8 0.4 0.8 0.6 0.8 0.8 0.8 1 0.8 0 0.75 0.2 0.75 0.4 0.75 0.6 0.75 0.8 0.75 1 0.75 0 0.7 0.2 0.7 0.4 0.7 0.6 0.7 0.8 0.7 1 0.7 0 0.65 0.2 0.65 0.4 0.65 0.6 0.65 0.8 0.65 1 0.65 0 0.6 0.2 0.6 0.4 0.6 0.6 0.6 0.8 0.6 1 0.6 0 0.55 0.2 0.55 0.4 0.55 0.6 0.55 0.8 0.55 1 0.55 0 0.5 0.2 0.5 0.4 0.5 0.6 0.5 0.8 0.5 1 0.5 0 0.45 0.2 0.45 0.4 0.45 0.6 0.45 0.8 0.45 1 0.45 0 0.4 0.2 0.4 0.4 0.4 0.6 0.4 0.8 0.4 1 0.4 0 0.35 0.2 0.35 0.4 0.35 0.6 0.35 0.8 0.35 1 0.35 0 0.3 0.2 0.3 0.4 0.3 0.6 0.3 0.8 0.3 1 0.3 0 0.25 0.2 0.25 0.4 0.25 0.6 0.25 0.8 0.25 1 0.25 0 0.2 0.2 0.2 0.4 0.2 0.6 0.2 0.8 0.2 1 0.2 0 0.15 0.2 0.15 0.4 0.15 0.6 0.15 0.8 0.15 1 0.15 0 0.1 0.2 0.1 0.4 0.1 0.6 0.1 0.8 0.1 1 0.1 0 0.05 0.2 0.05 0.4 0.05 0.6 0.05 0.8 0.05 1 0.05 0 0 0.2 0 0.4 0 0.6 0 0.8 0 1 0</float_array>
          <technique_common><accessor source="#dashplate_flat_body_jump-map-array" count="126" stride="2"><param name="S" type="float"/><param name="T" type="float"/></accessor></technique_common>
        </source>
        <vertices id="dashplate_flat_body_jump-vertices"><input semantic="POSITION" source="#dashplate_flat_body_jump-positions"/></vertices>
        <triangles material="dashplate_flat_body_jump-material" count="200">
          <input semantic="VERTEX" source="#dashplate_flat_body_jump-vertices" offset="0"/>
          <input semantic="NORMAL" source="#dashplate_flat_body_jump-normals" offset="1"/>
          <input semantic="TEXCOORD" source="#dashplate_flat_body_jump-map" offset="2" set="0"/>
          <p>0 0 0 1 0 1 7 0 7 0 0 0 7 0 7 6 0 6 1 0 1 2 0 2 8 0 8 1 0 1 8 0 8 7 0 7 2 0 2 3 0 3 9 0 9 2 0 2 9 0 9 8 0 8 3 0 3 4 0 4 10 0 10 3 0 3 10 0 10 9 0 9 4 0 4 5 0 5 11 0 11 4 0 4 11 0 11 10 0 10 6 0 6 7 0 7 13 0 13 6 0 6 13 0 13 12 0 12 7 0 7 8 0 8 14 0 14 7 0 7 14 0 14 13 0 13 8 0 8 9 0 9 15 0 15 8 0 8 15 0 15 14 0 14 9 0 9 10 0 10 16 0 16 9 0 9 16 0 16 15 0 15 10 0 10 11 0 11 17 0 17 10 0 10 17 0 17 16 0 16 12 0 12 13 0 13 19 0 19 12 0 12 19 0 19 18 0 18 13 0 13 14 0 14 20 0 20 13 0 13 20 0 20 19 0 19 14 0 14 15 0 15 21 0 21 14 0 14 21 0 21 20 0 20 15 0 15 16 0 16 22 0 22 15 0 15 22 0 22 21 0 21 16 0 16 17 0 17 23 0 23 16 0 16 23 0 23 22 0 22 18 0 18 19 0 19 25 0 25 18 0 18 25 0 25 24 0 24 19 0 19 20 0 20 26 0 26 19 0 19 26 0 26 25 0 25 20 0 20 21 0 21 27 0 27 20 0 20 27 0 27 26 0 26 21 0 21 22 0 22 28 0 28 21 0 21 28 0 28 27 0 27 22 0 22 23 0 23 29 0 29 22 0 22 29 0 29 28 0 28 24 0 24 25 0 25 31 0 31 24 0 24 31 0 31 30 0 30 25 0 25 26 0 26 32 0 32 25 0 25 32 0 32 31 0 31 26 0 26 27 0 27 33 0 33 26 0 26 33 0 33 32 0 32 27 0 27 28 0 28 34 0 34 27 0 27 34 0 34 33 0 33 28 0 28 29 0 29 35 0 35 28 0 28 35 0 35 34 0 34 30 0 30 31 0 31 37 0 37 30 0 30 37 0 37 36 0 36 31 0 31 32 0 32 38 0 38 31 0 31 38 0 38 37 0 37 32 0 32 33 0 33 39 0 39 32 0 32 39 0 39 38 0 38 33 0 33 34 0 34 40 0 40 33 0 33 40 0 40 39 0 39 34 0 34 35 0 35 41 0 41 34 0 34 41 0 41 40 0 40 36 0 36 37 0 37 43 0 43 36 0 36 43 0 43 42 0 42 37 0 37 38 0 38 44 0 44 37 0 37 44 0 44 43 0 43 38 0 38 39 0 39 45 0 45 38 0 38 45 0 45 44 0 44 39 0 39 40 0 40 46 0 46 39 0 39 46 0 46 45 0 45 40 0 40 41 0 41 47 0 47 40 0 40 47 0 47 46 0 46 42 0 42 43 0 43 49 0 49 42 0 42 49 0 49 48 0 48 43 0 43 44 0 44 50 0 50 43 0 43 50 0 50 49 0 49 44 0 44 45 0 45 51 0 51 44 0 44 51 0 51 50 0 50 45 0 45 46 0 46 52 0 52 45 0 45 52 0 52 51 0 51 46 0 46 47 0 47 53 0 53 46 0 46 53 0 53 52 0 52 48 0 48 49 0 49 55 0 55 48 0 48 55 0 55 54 0 54 49 0 49 50 0 50 56 0 56 49 0 49 56 0 56 55 0 55 50 0 50 51 0 51 57 0 57 50 0 50 57 0 57 56 0 56 51 0 51 52 0 52 58 0 58 51 0 51 58 0 58 57 0 57 52 0 52 53 0 53 59 0 59 52 0 52 59 0 59 58 0 58 54 0 54 55 0 55 61 0 61 54 0 54 61 0 61 60 0 60 55 0 55 56 0 56 62 0 62 55 0 55 62 0 62 61 0 61 56 0 56 57 0 57 63 0 63 56 0 56 63 0 63 62 0 62 57 0 57 58 0 58 64 0 64 57 0 57 64 0 64 63 0 63 58 0 58 59 0 59 65 0 65 58 0 58 65 0 65 64 0 64 60 0 60 61 0 61 67 0 67 60 0 60 67 0 67 66 0 66 61 0 61 62 0 62 68 0 68 61 0 61 68 0 68 67 0 67 62 0 62 63 0 63 69 0 69 62 0 62 69 0 69 68 0 68 63 0 63 64 0 64 70 0 70 63 0 63 70 0 70 69 0 69 64 0 64 65 0 65 71 0 71 64 0 64 71 0 71 70 0 70 66 0 66 67 0 67 73 0 73 66 0 66 73 0 73 72 0 72 67 0 67 68 0 68 74 0 74 67 0 67 74 0 74 73 0 73 68 0 68 69 0 69 75 0 75 68 0 68 75 0 75 74 0 74 69 0 69 70 0 70 76 0 76 69 0 69 76 0 76 75 0 75 70 0 70 71 0 71 77 0 77 70 0 70 77 0 77 76 0 76 72 0 72 73 0 73 79 0 79 72 0 72 79 0 79 78 0 78 73 0 73 74 0 74 80 0 80 73 0 73 80 0 80 79 0 79 74 0 74 75 0 75 81 0 81 74 0 74 81 0 81 80 0 80 75 0 75 76 0 76 82 0 82 75 0 75 82 0 82 81 0 81 76 0 76 77 0 77 83 0 83 76 0 76 83 0 83 82 0 82 78 0 78 79 0 79 85 0 85 78 0 78 85 0 85 84 0 84 79 0 79 80 0 80 86 0 86 79 0 79 86 0 86 85 0 85 80 0 80 81 0 81 87 0 87 80 0 80 87 0 87 86 0 86 81 0 81 82 0 82 88 0 88 81 0 81 88 0 88 87 0 87 82 0 82 83 0 83 89 0 89 82 0 82 89 0 89 88 0 88 84 0 84 85 0 85 91 0 91 84 0 84 91 0 91 90 0 90 85 0 85 86 0 86 92 0 92 85 0 85 92 0 92 91 0 91 86 0 86 87 0 87 93 0 93 86 0 86 93 0 93 92 0 92 87 0 87 88 0 88 94 0 94 87 0 87 94 0 94 93 0 93 88 0 88 89 0 89 95 0 95 88 0 88 95 0 95 94 0 94 90 0 90 91 0 91 97 0 97 90 0 90 97 0 97 96 0 96 91 0 91 92 0 92 98 0 98 91 0 91 98 0 98 97 0 97 92 0 92 93 0 93 99 0 99 92 0 92 99 0 99 98 0 98 93 0 93 94 0 94 100 0 100 93 0 93 100 0 100 99 0 99 94 0 94 95 0 95 101 0 101 94 0 94 101 0 101 100 0 100 96 0 96 97 0 97 103 0 103 96 0 96 103 0 103 102 0 102 97 0 97 98 0 98 104 0 104 97 0 97 104 0 104 103 0 103 98 0 98 99 0 99 105 0 105 98 0 98 105 0 105 104 0 104 99 0 99 100 0 100 106 0 106 99 0 99 106 0 106 105 0 105 100 0 100 101 0 101 107 0 107 100 0 100 107 0 107 106 0 106 102 0 102 103 0 103 109 0 109 102 0 102 109 0 109 108 0 108 103 0 103 104 0 104 110 0 110 103 0 103 110 0 110 109 0 109 104 0 104 105 0 105 111 0 111 104 0 104 111 0 111 110 0 110 105 0 105 106 0 106 112 0 112 105 0 105 112 0 112 111 0 111 106 0 106 107 0 107 113 0 113 106 0 106 113 0 113 112 0 112 108 0 108 109 0 109 115 0 115 108 0 108 115 0 115 114 0 114 109 0 109 110 0 110 116 0 116 109 0 109 116 0 116 115 0 115 110 0 110 111 0 111 117 0 117 110 0 110 117 0 117 116 0 116 111 0 111 112 0 112 118 0 118 111 0 111 118 0 118 117 0 117 112 0 112 113 0 113 119 0 119 112 0 112 119 0 119 118 0 118 114 0 114 115 0 115 121 0 121 114 0 114 121 0 121 120 0 120 115 0 115 116 0 116 122 0 122 115 0 115 122 0 122 121 0 121 116 0 116 117 0 117 123 0 123 116 0 116 123 0 123 122 0 122 117 0 117 118 0 118 124 0 124 117 0 117 124 0 124 123 0 123 118 0 118 119 0 119 125 0 125 118 0 118 125 0 125 124 0 124</p>
        </triangles>
      </mesh>
    </geometry>
  </library_geometries>
  <library_visual_scenes>
    <visual_scene id="Scene" name="Scene">
      <node id="dashplate_flat_body_jump" name="dashplate_flat_body_jump" type="NODE">
        <instance_geometry url="#dashplate_flat_body_jump-mesh">
          <bind_material><technique_common><instance_material symbol="dashplate_flat_body_jump-material" target="#dashplate_flat_body_jump-material"/></technique_common></bind_material>
        </instance_geometry>
      </node>
    </visual_scene>
  </library_visual_scenes>
  <scene><instance_visual_scene url="#Scene"/></scene>
</COLLADA>
